<?xml version="1.0" encoding="UTF-8"?> <svg xmlns="http://www.w3.org/2000/svg" width="128" height="37" viewBox="0 0 128 37" fill="none"><path fill-rule="evenodd" clip-rule="evenodd" d="M27.5975 9.04859C25.1634 6.61447 22.5632 8.18999 20.936 9.81716L13.2496 17.5036L5.56306 25.1901C3.93589 26.8175 2.23229 29.2895 4.79431 31.8517C7.3565 34.4138 9.82867 32.7103 11.4558 31.0831L19.1424 23.3965L26.829 15.7101C28.4561 14.0828 30.0315 11.4825 27.5975 9.04859Z" fill="#FF5C57"></path><path fill-rule="evenodd" clip-rule="evenodd" d="M12.9101 8.41861L16.1656 11.6738L19.4787 8.36043C19.7041 8.13511 19.9319 7.92545 20.1618 7.72836C19.8152 5.97778 18.8161 4.39502 16.1641 4.39502C13.5067 4.39502 12.5087 5.9838 12.1641 7.73852C12.4116 7.95282 12.6595 8.16799 12.9101 8.41861Z" fill="#FF5C57"></path><path fill-rule="evenodd" clip-rule="evenodd" d="M4.10605 23.7336L11.5296 16.3101H5.25417C2.95276 16.3101 0 17.0347 0 20.4769C0 23.0453 1.64386 24.0999 3.43456 24.4702C3.6468 24.2256 3.85869 23.981 4.10605 23.7336Z" fill="#FF5C57"></path><path fill-rule="evenodd" clip-rule="evenodd" d="M28.9059 16.4771C28.7075 16.7079 28.5123 16.9392 28.285 17.1666L20.8076 24.6439H26.9942C29.2955 24.6439 32.2482 24.1003 32.2482 20.4769C32.2482 17.8202 30.6601 16.822 28.9059 16.4771Z" fill="#FF5C57"></path><path fill-rule="evenodd" clip-rule="evenodd" d="M5.25401 14.2501H13.5856L14.7068 13.1288L11.4537 9.87568C9.82653 8.24834 7.3542 6.54474 4.79218 9.10693C2.91353 10.9856 3.33078 12.8141 4.32708 14.2984C4.63072 14.2756 4.93247 14.2501 5.25401 14.2501Z" fill="#FF5C57"></path><path fill-rule="evenodd" clip-rule="evenodd" d="M26.9944 26.7037L18.744 26.7038L17.6201 27.8279L20.9337 31.1412C22.5608 32.7686 25.1612 34.3441 27.5952 31.91C29.4114 30.0938 28.9945 28.1856 27.9904 26.6577C27.6675 26.6808 27.3444 26.7037 26.9944 26.7037Z" fill="#FF5C57"></path><path fill-rule="evenodd" clip-rule="evenodd" d="M19.4772 32.5976L16.1659 29.2861L12.9126 32.5394C12.6654 32.7864 12.4197 33.0123 12.1748 33.2245C12.5478 35.0088 13.6037 36.6436 16.1643 36.6436C18.7322 36.6436 19.7867 35.0002 20.1574 33.2102C19.9295 33.0142 19.7016 32.8219 19.4772 32.5976Z" fill="#FF5C57"></path><path fill-rule="evenodd" clip-rule="evenodd" d="M41.517 10.2217C39.1999 11.1703 38.3022 11.8535 38.3022 13.277V20.6725V21.2624V30.5662C38.3022 32.0186 39.6963 32.4381 42.2002 32.4381C44.704 32.4381 45.6802 31.9893 45.6802 30.5662V21.2624V20.6725V10.9069C45.6802 9.45429 44.0468 9.18576 41.517 10.2217Z" fill="#FF5C57"></path><mask id="mask0" maskUnits="userSpaceOnUse" x="100" y="0" width="9" height="33"><path fill-rule="evenodd" clip-rule="evenodd" d="M100.919 0H108.297V32.4378H100.919V0Z" fill="white"></path></mask><g mask="url(#mask0)"><path fill-rule="evenodd" clip-rule="evenodd" d="M104.134 0.624681C101.816 1.57347 100.919 2.25667 100.919 3.68003V20.6726V21.2623V30.5659C100.919 32.0185 102.313 32.4378 104.817 32.4378C107.321 32.4378 108.297 31.9893 108.297 30.5659V21.2623V20.6726V1.30994C108.297 -0.142513 106.663 -0.411212 104.134 0.624681Z" fill="#FF5C57"></path></g><path fill-rule="evenodd" clip-rule="evenodd" d="M53.8558 9.49658C49.4492 9.49658 47.4405 12.4697 47.1764 12.8509C46.8215 13.3628 46.7962 13.9498 47.0136 14.212C47.3065 14.5645 47.8381 14.8076 48.8712 14.4519C49.6357 14.1887 50.3538 13.93 50.7943 14.3745C51.6758 15.263 51.4654 17.0787 51.4654 20.0893V30.5659C51.4654 32.0184 52.8595 32.4379 55.3634 32.4379C57.8672 32.4379 58.8434 31.9893 58.8434 30.5659V15.4491C58.8434 12.1803 56.9382 9.49658 53.8558 9.49658Z" fill="#FF5C57"></path><path fill-rule="evenodd" clip-rule="evenodd" d="M66.8642 9.49658C62.4576 9.49658 60.4488 12.4697 60.1846 12.8509C59.8297 13.3628 59.8045 13.9498 60.0219 14.212C60.3149 14.5645 60.8464 14.8076 61.8796 14.4519C62.6439 14.1887 63.362 13.93 63.8026 14.3745C64.6841 15.263 64.4736 17.0787 64.4736 20.0893V30.5659C64.4736 32.0184 65.8679 32.4379 68.3717 32.4379C70.8756 32.4379 71.8517 31.9893 71.8517 30.5659V15.4491C71.8517 12.1803 69.9466 9.49658 66.8642 9.49658Z" fill="#FF5C57"></path><path fill-rule="evenodd" clip-rule="evenodd" d="M93.0174 9.49658C90.5136 9.49658 89.5374 9.94533 89.5374 11.3685V11.4727C88.4895 10.9103 86.9651 10.3335 85.115 10.3335C82.1651 10.3335 74.603 12.2571 74.603 21.9251C74.603 28.7966 78.0104 31.1381 80.2104 32.0328C82.1892 32.8376 84.1985 32.81 86.8017 30.3391C88.6914 28.5454 88.6914 27.6488 88.2122 27.2307C87.7514 26.8286 87.0874 27.3259 85.5324 27.4564C82.8509 27.6817 82.0877 23.1599 82.0877 19.9385C82.0877 16.8222 83.1181 13.3632 86.3326 13.3632C87.7625 13.3632 89.5374 14.2276 89.5374 16.8074V20.6724V21.2622V30.5659C89.5374 32.0184 90.9315 32.4379 93.4355 32.4379C95.9392 32.4379 96.9155 31.9893 96.9155 30.5659V21.2622V20.6724V11.3685C96.9155 9.91607 95.5212 9.49658 93.0174 9.49658Z" fill="#FF5C57"></path><path fill-rule="evenodd" clip-rule="evenodd" d="M127.415 25.9935C127.139 25.6388 126.754 25.4603 125.65 25.7897C124.005 26.281 123.352 26.3777 122.945 26.4077C121.882 26.4853 122.007 25.7761 122.007 24.8167V14.6495H125.182C126.892 14.6495 126.892 13.1339 126.892 13.1339C126.89 12.3002 126.694 11.6256 125.182 11.6256H122.021V7.55093C122.021 3.58483 118.528 6.16285 118.528 6.16285C118.528 6.16285 111.325 11.4874 111.133 13.0877C110.941 14.6881 112.803 14.6495 112.803 14.6495H114.629V24.1751C114.629 29.3691 115.225 32.438 120.143 32.438C123.274 32.438 126.576 28.9437 127.351 27.9734C127.914 27.2692 127.74 26.4111 127.415 25.9935Z" fill="#FF5C57"></path></svg> 